<svg width="253" height="39" viewBox="0 0 253 39" fill="none" xmlns="http://www.w3.org/2000/svg">
<path fill-rule="evenodd" clip-rule="evenodd" d="M6.8354 36.306C5.46105 36.4506 4.05837 36.306 2.75486 35.8434C1.62137 35.3663 0.714586 34.4554 0.261192 33.2988C0.0203267 31.9976 -0.0505162 30.6819 0.0344952 29.3663V1.56386C1.40885 1.41928 2.81153 1.56386 4.11504 2.02651C5.24853 2.50361 6.15531 3.41446 6.60871 4.57108C6.84957 5.87229 6.92042 7.18795 6.8354 8.50361V36.306Z" fill="white"/>
<path d="M11.3693 15.4578C15.2374 12.6819 31.8004 1.56386 31.8004 1.56386L33.1606 3.18314C33.7698 4.06507 34.0816 5.12049 34.0674 6.19037C34.0674 8.96627 30.8936 10.8169 27.2665 13.1301C23.6393 15.4434 17.0509 20.0699 17.0509 20.0699L35.2009 32.8072C34.1382 34.9614 32.0838 36.4361 29.7318 36.6964C27.9749 36.4651 26.3172 35.6988 24.9853 34.4988C22.265 32.3446 14.1322 26.3012 12.0494 24.7108C9.96665 23.1205 9.10237 22.1663 9.10237 20.0843C8.93235 18.2193 9.8108 16.4265 11.3693 15.4578Z" fill="white"/>
<path fill-rule="evenodd" clip-rule="evenodd" d="M79.4493 1.56385C79.591 2.96626 79.4493 4.39758 78.9959 5.7277C78.5283 6.88433 77.6357 7.80963 76.5022 8.27228C75.2271 8.51806 73.9377 8.59035 72.6484 8.5036H45.4164C45.2747 7.10119 45.4164 5.66987 45.8698 4.33975C46.3374 3.18312 47.23 2.25782 48.3635 1.79517C49.6386 1.54939 50.928 1.4771 52.2173 1.56385H79.4493Z" fill="white"/>
<path fill-rule="evenodd" clip-rule="evenodd" d="M79.4493 15.4578C79.591 16.8602 79.4493 18.2915 78.9959 19.6217C78.5283 20.7783 77.6357 21.7036 76.5022 22.1662C75.2271 22.412 73.9377 22.4843 72.6484 22.3976H45.4164C45.2747 20.9952 45.4164 19.5638 45.8698 18.2337C46.3374 17.0771 47.23 16.1518 48.3635 15.6891C49.6386 15.4434 50.928 15.3711 52.2173 15.4578H79.4493Z" fill="white"/>
<path fill-rule="evenodd" clip-rule="evenodd" d="M79.4493 29.3518C79.591 30.7542 79.4493 32.1855 78.9959 33.5156C78.5283 34.6723 77.6357 35.5976 76.5022 36.0602C75.2271 36.306 73.9377 36.3783 72.6484 36.2916H45.4164C45.2747 34.8891 45.4164 33.4578 45.8698 32.1277C46.3374 30.9711 47.23 30.0458 48.3635 29.5831C49.6386 29.3373 50.928 29.2651 52.2173 29.3518H79.4493Z" fill="white"/>
<path d="M124.831 27.0385C124.831 17.7711 122.564 15.4578 111.215 15.4578H90.7983V29.3518C90.7133 30.6675 90.7983 31.9976 91.025 33.2843C91.4926 34.441 92.3852 35.3663 93.5187 35.8289C94.8363 36.2916 96.2249 36.4361 97.5992 36.2916V22.3976H113.482C115.65 22.0506 117.676 23.5687 118.016 25.7663C118.087 26.1855 118.087 26.6048 118.016 27.0241V31.6506C117.676 33.8626 119.164 35.9301 121.317 36.2771C121.728 36.3494 122.139 36.3494 122.55 36.2771H127.084C127.084 36.2771 124.817 34.8891 124.817 27.0096L124.831 27.0385Z" fill="white"/>
<path d="M113.482 8.51808H90.7841C90.7841 3.89157 92.371 1.57832 97.5851 1.57832H115.735C121.402 1.57832 124.817 2.96627 124.817 8.51808C124.817 11.7566 122.323 13.1446 118.016 13.1446C118.016 9.90603 117.109 8.51808 113.482 8.51808Z" fill="white"/>
<path d="M186.096 20.6916C179.692 19.4626 178.842 16.4265 178.842 11.4241C178.842 4.48434 183.829 1 195.178 1C204.033 1 210.154 4.23855 210.154 7.93976C210.126 9.2265 209.644 10.4554 208.794 11.4096C204.218 9.08192 199.159 7.89638 194.045 7.93976C188.377 7.93976 186.096 8.48915 186.096 11.4096C186.096 13.4193 186.62 14.1855 189.27 15.1108C191.919 16.0361 195.164 16.7301 195.164 20.6626V22.3831C195.164 22.3831 192.486 21.9205 186.082 20.6626L186.096 20.6916Z" fill="white"/>
<path d="M204.473 17.7711C210.14 19.159 211.5 22.6289 211.5 26.5759C211.5 33.5157 206.513 37 195.164 37C183.815 37 178.147 34.6867 178.147 30.2916C178.19 29.1205 178.587 27.9928 179.281 27.053C181.321 28.441 189.964 30.0892 196.326 30.0892C201.993 30.0892 204.274 29.6265 204.274 26.6193C204.274 24.306 203.368 23.6121 201.101 22.9181C198.834 22.2241 197.445 21.5301 197.445 18.5229V16.2096C199.825 16.5855 202.177 17.1205 204.473 17.8145V17.7711Z" fill="white"/>
<path d="M227.596 20.6916C221.192 19.4626 220.341 16.4265 220.341 11.4241C220.341 4.48434 225.329 1 236.678 1C245.533 1 251.654 4.23855 251.654 7.93976C251.626 9.2265 251.144 10.4554 250.294 11.4096C245.717 9.08192 240.659 7.89638 235.544 7.93976C229.877 7.93976 227.596 8.40241 227.596 11.4096C227.596 13.4193 228.12 14.1855 230.77 15.1108C233.419 16.0361 236.664 16.7301 236.664 20.6626V22.3831C236.664 22.3831 233.957 21.9205 227.582 20.6626L227.596 20.6916Z" fill="white"/>
<path d="M245.972 17.7711C251.64 19.159 253 22.6289 253 26.5759C253 33.5157 248.013 37 236.664 37C225.315 37 219.647 34.6867 219.647 30.2916C219.69 29.1205 220.072 27.9928 220.752 27.053C222.793 28.441 231.435 30.0892 237.797 30.0892C243.465 30.0892 245.746 29.6265 245.746 26.6193C245.746 24.306 244.839 23.6121 242.572 22.9181C240.305 22.2241 238.945 21.5301 238.945 18.5229V16.2096C241.325 16.5855 243.677 17.1205 245.972 17.8145V17.7711Z" fill="white"/>
<mask id="mask0_323_8595" style="mask-type:luminance" maskUnits="userSpaceOnUse" x="135" y="7" width="37" height="32">
<mask id="mask1_323_8595" style="mask-type:luminance" maskUnits="userSpaceOnUse" x="135" y="7" width="37" height="32">
<path d="M169.672 11.7428C168.542 9.7772 166.895 8.07113 164.866 7.06326C167.744 10.3312 169.898 14.0272 170.328 18.3228C171.021 24.458 168.552 31.1897 162.99 34.4455C162.623 34.6656 162.246 34.869 161.864 35.0618C167.885 30.7678 170.824 22.8551 168.086 14.8089C167.031 11.7899 165.089 8.98488 162.348 7.21657C163.887 8.65399 165.072 10.3889 165.942 12.2635C168.352 17.7733 168.251 24.5233 164.957 29.6597C163.374 32.1779 161.047 34.06 158.378 35.2682C164.013 31.6603 167.401 24.7236 165.921 17.7718C165.201 13.7631 163.277 9.7681 159.83 7.36684C162.81 10.1127 164.315 14.0318 164.667 17.9342C164.99 21.7501 164.348 25.7315 162.305 29.0374C160.812 31.5783 158.574 33.5713 155.991 34.8508C158.955 32.8396 161.299 29.8236 162.474 26.5451C163.581 23.7067 163.631 20.5282 163.139 17.5821C162.455 13.7434 160.671 9.75899 157.311 7.51862C160.037 10.2948 161.29 14.0409 161.689 17.7764C162.109 21.4632 161.546 25.2154 159.602 28.4196C159.436 28.7095 159.261 28.9949 159.078 29.2727C155.487 34.7233 148.388 36.9409 142.312 34.3545C142.282 34.3423 142.253 34.3302 142.223 34.3165C138.072 32.5239 135.18 27.6501 135.18 27.6501C138.938 37.205 146.623 38.776 150.704 38.9096C155.311 39.3057 160.031 38.4117 163.982 35.9968C172.118 31.1138 174.153 19.6236 169.67 11.7459L169.672 11.7428Z" fill="white"/>
</mask>
<g mask="url(#mask1_323_8595)">
<path d="M189.145 -0.0388184H116.855V62.649H189.145V-0.0388184Z" fill="white"/>
</g>
</mask>
<g mask="url(#mask0_323_8595)">
<mask id="mask2_323_8595" style="mask-type:luminance" maskUnits="userSpaceOnUse" x="135" y="7" width="38" height="33">
<path d="M172.006 7.0405H135.148V39.0249H172.006V7.0405Z" fill="white"/>
</mask>
<g mask="url(#mask2_323_8595)">
<rect width="37.2309" height="32.2759" transform="matrix(1 0 0 -1 134.982 39.2071)" fill="url(#paint0_linear_323_8595)"/>
</g>
</g>
<mask id="mask3_323_8595" style="mask-type:luminance" maskUnits="userSpaceOnUse" x="134" y="0" width="37" height="33">
<mask id="mask4_323_8595" style="mask-type:luminance" maskUnits="userSpaceOnUse" x="134" y="0" width="37" height="33">
<path d="M155.161 0.0628884C152.538 -0.140505 149.856 0.150925 147.318 0.915928C145.614 1.42897 143.972 2.14388 142.445 3.04549C136.854 6.34229 133.893 12.4836 134.003 18.7736C134.056 21.8063 134.805 24.8754 136.33 27.5287C137.459 29.4943 139.107 31.2004 141.136 32.2082C138.258 28.9403 136.103 25.2458 135.674 20.9502C134.98 14.815 137.45 8.08329 143.011 4.82747C143.379 4.60738 143.756 4.40398 144.138 4.21121C138.117 8.50525 135.177 16.4179 137.915 24.4641C138.97 27.4831 140.912 30.2881 143.654 32.0564C142.115 30.6205 140.931 28.8841 140.059 27.0095C137.65 21.4997 137.751 14.7497 141.044 9.61329C142.628 7.09516 144.955 5.21149 147.625 4.00478C141.991 7.61275 138.601 14.5494 140.081 21.5012C140.801 25.5099 142.724 29.5049 146.171 31.9062C143.191 29.1604 141.686 25.2412 141.334 21.3388C141.012 17.5229 141.654 13.5415 143.697 10.2356C145.189 7.69471 147.428 5.70176 150.011 4.4222C147.046 6.43337 144.702 9.44936 143.528 12.728C142.42 15.5679 142.371 18.7448 142.862 21.6909C143.546 25.5281 145.33 29.514 148.691 31.7544C145.965 28.9782 144.712 25.2321 144.313 21.4967C143.892 17.8098 144.456 14.0576 146.399 10.8534C146.565 10.5635 146.741 10.2796 146.924 10.0003C150.513 4.5497 157.614 2.3321 163.69 4.91702C163.719 4.92916 163.749 4.94131 163.778 4.95497C167.93 6.74756 170.821 11.6214 170.821 11.6229C169.954 9.6057 168.929 7.72507 167.413 5.9689C164.287 2.35031 159.819 0.425658 155.161 0.0628884Z" fill="white"/>
</mask>
<g mask="url(#mask4_323_8595)">
<path d="M189.145 -0.0388184H116.855V62.649H189.145V-0.0388184Z" fill="white"/>
</g>
</mask>
<g mask="url(#mask3_323_8595)">
<mask id="mask5_323_8595" style="mask-type:luminance" maskUnits="userSpaceOnUse" x="133" y="-1" width="38" height="34">
<path d="M170.852 -0.0266724H133.994V32.2128H170.852V-0.0266724Z" fill="white"/>
</mask>
<g mask="url(#mask5_323_8595)">
<rect width="37.2309" height="32.4944" transform="matrix(1 0 0 -1 133.787 32.3934)" fill="url(#paint1_linear_323_8595)"/>
</g>
</g>
<defs>
<linearGradient id="paint0_linear_323_8595" x1="29.7337" y1="35.4883" x2="2.10439" y2="-3.99599" gradientUnits="userSpaceOnUse">
<stop stop-color="#086FDB"/>
<stop offset="0.335" stop-color="#15EFFB"/>
<stop offset="0.79" stop-color="#701BAA"/>
<stop offset="1" stop-color="#FD3FE3"/>
</linearGradient>
<linearGradient id="paint1_linear_323_8595" x1="20.457" y1="34.5184" x2="7.12145" y2="-4.66752" gradientUnits="userSpaceOnUse">
<stop stop-color="#086FDB"/>
<stop offset="0.335" stop-color="#15EFFB"/>
<stop offset="0.84" stop-color="#701BAA"/>
<stop offset="1" stop-color="#FD3FE3"/>
</linearGradient>
</defs>
</svg>
